<?xml version="1.0" encoding="UTF-8"?>
<svg width="109px" height="64px" viewBox="0 0 109 64" version="1.1" xmlns="http://www.w3.org/2000/svg" xmlns:xlink="http://www.w3.org/1999/xlink">
    <title>编组 3备份 6@3x</title>
    <defs>
        <linearGradient x1="0%" y1="100%" x2="100%" y2="100%" id="linearGradient-1">
            <stop stop-color="#5EABFB" offset="0%"></stop>
            <stop stop-color="#1664FF" offset="100%"></stop>
        </linearGradient>
        <linearGradient x1="0%" y1="100%" x2="100%" y2="100%" id="linearGradient-2">
            <stop stop-color="#5EABFB" offset="0%"></stop>
            <stop stop-color="#1664FF" offset="100%"></stop>
        </linearGradient>
        <linearGradient x1="0%" y1="100%" x2="100%" y2="100%" id="linearGradient-3">
            <stop stop-color="#5EABFB" offset="0%"></stop>
            <stop stop-color="#1664FF" offset="100%"></stop>
        </linearGradient>
        <linearGradient x1="0%" y1="100%" x2="100%" y2="100%" id="linearGradient-4">
            <stop stop-color="#5EABFB" offset="0%"></stop>
            <stop stop-color="#1664FF" offset="100%"></stop>
        </linearGradient>
        <linearGradient x1="0%" y1="100%" x2="100%" y2="100%" id="linearGradient-5">
            <stop stop-color="#5EABFB" offset="0%"></stop>
            <stop stop-color="#1664FF" offset="100%"></stop>
        </linearGradient>
        <linearGradient x1="0%" y1="100%" x2="100%" y2="100%" id="linearGradient-6">
            <stop stop-color="#5EABFB" offset="0%"></stop>
            <stop stop-color="#1664FF" offset="100%"></stop>
        </linearGradient>
    </defs>
    <g id="中台UI" stroke="none" stroke-width="1" fill="none" fill-rule="evenodd">
        <g id="画板" transform="translate(-1186.000000, -155.000000)">
            <g id="编组-3备份-6" transform="translate(1186.095033, 155.000000)">
                <g id="图形" transform="translate(-0.000000, -0.000000)">
                    <path d="M1.33087999,23.3793602 C1.33087999,23.3793602 11.0532864,17.1362829 19.7751737,14.1894521 C28.4984076,11.2426213 51.437631,2.42123772 76.6566375,0.716470867 C101.875644,-0.988295983 107.861253,0.884354232 107.861253,0.884354232 C107.861253,0.884354232 108.428169,1.12594249 107.270098,2.35572226 C106.113374,3.58413712 99.1689907,11.9796703 94.4249412,16.2763925 C89.6822382,20.5717498 83.7276009,20.7764856 83.7276009,20.7764856 C83.7276009,20.7764856 80.559066,21.4848715 66.308065,18.5080128 C66.308065,18.5080128 53.1653107,16.0197903 48.4454998,16.2641083 C43.7270355,16.5070615 30.3432409,15.3114044 3.84901018,23.4298617 C3.84901018,23.4298617 1.11946478,25.2369965 1.33087999,23.3793602" id="Fill-1" fill="url(#linearGradient-1)"></path>
                    <path d="M69.556049,25.6673511 C69.556049,25.6673511 69.9963851,26.1669065 69.2719177,26.4030352 L55.2861957,23.0167048 C55.2861957,23.0167048 53.8359143,21.86063 55.2606105,20.6540536 C55.2606105,20.6540536 56.1924533,20.1804314 56.8145796,20.6540536 L69.556049,25.6673511 Z" id="Fill-3" fill="url(#linearGradient-2)"></path>
                    <path d="M38.1129518,23.6505669 C38.1129518,23.6505669 36.6168862,23.0977802 37.131285,21.7861061 C37.131285,21.7861061 37.8799911,20.0472166 39.703279,21.4380553 C39.703279,21.4380553 54.8053271,27.3631096 55.6280959,27.5228035 L67.6262456,31.5984111 C67.6262456,31.5984111 75.0648291,33.6839865 76.1097858,33.8436805 C76.1097858,33.8436805 77.3324929,34.2422329 76.2255929,34.8154931 C76.2255929,34.8154931 70.6964792,33.9760763 58.9824607,30.5706373 C58.9824607,30.5706373 43.577429,25.9340537 38.1129518,23.6505669" id="Fill-5" fill="url(#linearGradient-3)"></path>
                    <path d="M20.6888375,23.8765952 C20.6888375,23.8765952 19.4109201,23.0057856 20.2700469,21.7582621 C20.2700469,21.7582621 21.0604974,20.7687056 22.1997156,21.5931085 C22.1997156,21.5931085 49.2649021,33.561964 58.3786481,36.1225265 C58.3786481,36.1225265 71.6574085,40.9406426 85.6310111,43.9256907 C85.6310111,43.9256907 87.6872597,44.6449959 85.4263289,44.8374475 C85.4263289,44.8374475 80.5139551,44.5699261 63.8714038,39.6385229 C47.230199,34.7084845 38.1864758,30.9003985 20.6888375,23.8765952" id="Fill-7" fill="url(#linearGradient-4)"></path>
                    <path d="M9.84835436,26.3558094 C9.84835436,26.3558094 8.63507345,25.7197635 9.01077309,24.5950815 C9.01077309,24.5950815 9.68137675,22.9831282 11.0831808,23.937197 C11.0831808,23.937197 43.8027141,39.2309621 59.43936,44.3370732 C59.43936,44.3370732 73.166536,49.36129 91.6391082,53.4778447 C91.6391082,53.4778447 94.1787838,54.2135287 91.4155736,54.3391 C91.4155736,54.3391 62.7708328,48.2598114 46.7019303,41.6031677 C30.6316813,34.9451591 23.5809168,33.2035398 9.84835436,26.3558094" id="Fill-9" fill="url(#linearGradient-5)"></path>
                    <path d="M0.470810605,28.82233 C0.470810605,28.82233 -0.482577724,27.7426898 0.324031893,26.6644145 C1.1319881,25.5847744 3.2232481,27.1844435 3.2232481,27.1844435 C3.2232481,27.1844435 30.6627876,42.5232504 53.5171756,49.7627087 C53.5171756,49.7627087 81.3781989,58.9253187 90.7464512,60.1127864 L106.488131,63.0132104 C106.488131,63.0132104 107.764702,63.7707329 105.785209,63.9945774 C103.803024,64.2170569 67.8947564,57.564508 46.6306955,49.4091982 C25.365288,41.2525235 11.8993512,35.6154642 0.470810605,28.82233" id="Fill-11" fill="url(#linearGradient-6)"></path>
                </g>
            </g>
        </g>
    </g>
</svg>